<mxfile host="Electron" agent="Mozilla/5.0 (Windows NT 10.0; Win64; x64) AppleWebKit/537.36 (KHTML, like Gecko) draw.io/24.7.17 Chrome/128.0.6613.36 Electron/32.0.1 Safari/537.36" version="24.7.17">
  <diagram name="Page-1" id="2c0d36ab-eaac-3732-788b-9136903baeff">
    <mxGraphModel dx="4143.5" dy="1393" grid="1" gridSize="10" guides="1" tooltips="1" connect="1" arrows="1" fold="1" page="1" pageScale="1.5" pageWidth="1169" pageHeight="827" background="none" math="0" shadow="0">
      <root>
        <mxCell id="0" />
        <mxCell id="1" parent="0" />
        <mxCell id="123" value="" style="fillColor=#AE4132;strokeColor=none;opacity=30;" parent="1" vertex="1">
          <mxGeometry x="793.5" y="120.00000000000003" width="210" height="99.99999999999994" as="geometry" />
        </mxCell>
        <mxCell id="122" value="" style="fillColor=#10739E;strokeColor=none;opacity=30;" parent="1" vertex="1">
          <mxGeometry x="97" y="280" width="1543" height="145.5" as="geometry" />
        </mxCell>
        <mxCell id="2" value="DDD APP repository" style="rounded=1;fillColor=#23445D;gradientColor=none;strokeColor=none;fontColor=#FFFFFF;fontStyle=1;fontFamily=Tahoma;fontSize=14" parent="1" vertex="1">
          <mxGeometry x="803.5" y="130" width="190" height="80" as="geometry" />
        </mxCell>
        <mxCell id="rrMZwg-70rDYRUQXoC33-184" value="" style="edgeStyle=elbowEdgeStyle;shape=connector;rounded=0;orthogonalLoop=1;jettySize=auto;elbow=vertical;html=1;strokeColor=default;strokeWidth=2;align=center;verticalAlign=middle;fontFamily=Tahoma;fontSize=14;fontColor=#FFFFFF;fontStyle=1;labelBackgroundColor=default;endArrow=classic;" edge="1" parent="1" source="4" target="rrMZwg-70rDYRUQXoC33-183">
          <mxGeometry relative="1" as="geometry" />
        </mxCell>
        <mxCell id="4" value="INFRASTRUCTURE&#xa;---------------&#xa;Описание исходящих соединений" style="rounded=1;fillColor=#23445D;gradientColor=none;strokeColor=none;fontColor=#FFFFFF;fontStyle=1;fontFamily=Tahoma;fontSize=14;whiteSpace=wrap;" parent="1" vertex="1">
          <mxGeometry x="1435" y="290" width="190" height="125.5" as="geometry" />
        </mxCell>
        <mxCell id="9" value="" style="edgeStyle=elbowEdgeStyle;elbow=vertical;strokeWidth=2;rounded=0" parent="1" source="2" target="4" edge="1">
          <mxGeometry x="337" y="215.5" width="100" height="100" as="geometry">
            <mxPoint x="337" y="315.5" as="sourcePoint" />
            <mxPoint x="437" y="215.5" as="targetPoint" />
          </mxGeometry>
        </mxCell>
        <mxCell id="rrMZwg-70rDYRUQXoC33-146" value="" style="edgeStyle=elbowEdgeStyle;shape=connector;rounded=0;orthogonalLoop=1;jettySize=auto;elbow=vertical;html=1;strokeColor=default;strokeWidth=2;align=center;verticalAlign=middle;fontFamily=Tahoma;fontSize=14;fontColor=#FFFFFF;fontStyle=1;labelBackgroundColor=default;endArrow=classic;" edge="1" parent="1" source="12" target="rrMZwg-70rDYRUQXoC33-145">
          <mxGeometry relative="1" as="geometry" />
        </mxCell>
        <mxCell id="rrMZwg-70rDYRUQXoC33-148" value="" style="edgeStyle=elbowEdgeStyle;shape=connector;rounded=0;orthogonalLoop=1;jettySize=auto;elbow=vertical;html=1;strokeColor=default;strokeWidth=2;align=center;verticalAlign=middle;fontFamily=Tahoma;fontSize=14;fontColor=#FFFFFF;fontStyle=1;labelBackgroundColor=default;endArrow=classic;" edge="1" parent="1" source="12" target="rrMZwg-70rDYRUQXoC33-147">
          <mxGeometry relative="1" as="geometry" />
        </mxCell>
        <mxCell id="rrMZwg-70rDYRUQXoC33-149" value="" style="edgeStyle=elbowEdgeStyle;shape=connector;rounded=0;orthogonalLoop=1;jettySize=auto;elbow=vertical;html=1;strokeColor=default;strokeWidth=2;align=center;verticalAlign=middle;fontFamily=Tahoma;fontSize=14;fontColor=#FFFFFF;fontStyle=1;labelBackgroundColor=default;endArrow=classic;" edge="1" parent="1" source="12" target="rrMZwg-70rDYRUQXoC33-147">
          <mxGeometry relative="1" as="geometry" />
        </mxCell>
        <mxCell id="rrMZwg-70rDYRUQXoC33-150" value="" style="edgeStyle=elbowEdgeStyle;shape=connector;rounded=0;orthogonalLoop=1;jettySize=auto;elbow=vertical;html=1;strokeColor=default;strokeWidth=2;align=center;verticalAlign=middle;fontFamily=Tahoma;fontSize=14;fontColor=#FFFFFF;fontStyle=1;labelBackgroundColor=default;endArrow=classic;" edge="1" parent="1" source="12" target="rrMZwg-70rDYRUQXoC33-147">
          <mxGeometry relative="1" as="geometry" />
        </mxCell>
        <mxCell id="rrMZwg-70rDYRUQXoC33-152" value="" style="edgeStyle=elbowEdgeStyle;shape=connector;rounded=0;orthogonalLoop=1;jettySize=auto;elbow=vertical;html=1;strokeColor=default;strokeWidth=2;align=center;verticalAlign=middle;fontFamily=Tahoma;fontSize=14;fontColor=#FFFFFF;fontStyle=1;labelBackgroundColor=default;endArrow=classic;" edge="1" parent="1" source="12" target="rrMZwg-70rDYRUQXoC33-151">
          <mxGeometry relative="1" as="geometry" />
        </mxCell>
        <mxCell id="12" value="CORE&#xa;-------------&#xa;Внутренний слой доменной модели" style="rounded=1;fillColor=#23445D;gradientColor=none;strokeColor=none;fontColor=#FFFFFF;fontStyle=1;fontFamily=Tahoma;fontSize=14;whiteSpace=wrap;" parent="1" vertex="1">
          <mxGeometry x="803.5" y="290" width="190" height="125.5" as="geometry" />
        </mxCell>
        <mxCell id="rrMZwg-70rDYRUQXoC33-130" style="edgeStyle=elbowEdgeStyle;shape=connector;rounded=0;orthogonalLoop=1;jettySize=auto;elbow=vertical;html=1;exitX=0.5;exitY=1;exitDx=0;exitDy=0;entryX=0.5;entryY=0;entryDx=0;entryDy=0;strokeColor=default;strokeWidth=2;align=center;verticalAlign=middle;fontFamily=Helvetica;fontSize=11;fontColor=default;labelBackgroundColor=default;endArrow=classic;" edge="1" parent="1" source="13" target="16">
          <mxGeometry relative="1" as="geometry" />
        </mxCell>
        <mxCell id="13" value="API&#xa;--------------&#xa;Описание интерфейсов для входящих соединений" style="rounded=1;fillColor=#23445D;gradientColor=none;strokeColor=none;fontColor=#FFFFFF;fontStyle=1;fontFamily=Tahoma;fontSize=14;whiteSpace=wrap;" parent="1" vertex="1">
          <mxGeometry x="107" y="290" width="190" height="125.5" as="geometry" />
        </mxCell>
        <mxCell id="rrMZwg-70rDYRUQXoC33-186" style="edgeStyle=elbowEdgeStyle;shape=connector;rounded=0;orthogonalLoop=1;jettySize=auto;elbow=vertical;html=1;exitX=0;exitY=1;exitDx=0;exitDy=0;entryX=0;entryY=0.5;entryDx=0;entryDy=0;strokeColor=default;strokeWidth=2;align=center;verticalAlign=middle;fontFamily=Tahoma;fontSize=14;fontColor=#FFFFFF;fontStyle=1;labelBackgroundColor=default;endArrow=classic;" edge="1" parent="1" source="14" target="15">
          <mxGeometry relative="1" as="geometry">
            <Array as="points">
              <mxPoint x="-60" y="615" />
            </Array>
          </mxGeometry>
        </mxCell>
        <mxCell id="rrMZwg-70rDYRUQXoC33-187" style="edgeStyle=elbowEdgeStyle;shape=connector;rounded=0;orthogonalLoop=1;jettySize=auto;elbow=vertical;html=1;exitX=0;exitY=1;exitDx=0;exitDy=0;entryX=0;entryY=0.5;entryDx=0;entryDy=0;strokeColor=default;strokeWidth=2;align=center;verticalAlign=middle;fontFamily=Tahoma;fontSize=14;fontColor=#FFFFFF;fontStyle=1;labelBackgroundColor=default;endArrow=classic;" edge="1" parent="1" source="14" target="rrMZwg-70rDYRUQXoC33-133">
          <mxGeometry relative="1" as="geometry">
            <Array as="points">
              <mxPoint x="-60" y="775" />
            </Array>
          </mxGeometry>
        </mxCell>
        <mxCell id="rrMZwg-70rDYRUQXoC33-188" style="edgeStyle=elbowEdgeStyle;shape=connector;rounded=0;orthogonalLoop=1;jettySize=auto;elbow=vertical;html=1;exitX=0;exitY=1;exitDx=0;exitDy=0;entryX=0;entryY=0.5;entryDx=0;entryDy=0;strokeColor=default;strokeWidth=2;align=center;verticalAlign=middle;fontFamily=Tahoma;fontSize=14;fontColor=#FFFFFF;fontStyle=1;labelBackgroundColor=default;endArrow=classic;" edge="1" parent="1" source="14" target="rrMZwg-70rDYRUQXoC33-142">
          <mxGeometry relative="1" as="geometry">
            <Array as="points">
              <mxPoint x="-30" y="891" />
            </Array>
          </mxGeometry>
        </mxCell>
        <mxCell id="14" value="adapters" style="rounded=1;fillColor=#23445D;gradientColor=none;strokeColor=none;fontColor=#FFFFFF;fontStyle=1;fontFamily=Tahoma;fontSize=14" parent="1" vertex="1">
          <mxGeometry x="-60" y="455.5" width="280" height="60" as="geometry" />
        </mxCell>
        <mxCell id="15" value="http" style="rounded=1;fillColor=#23445D;gradientColor=none;strokeColor=none;fontColor=#FFFFFF;fontStyle=1;fontFamily=Tahoma;fontSize=14" parent="1" vertex="1">
          <mxGeometry x="-40" y="550" width="130" height="130" as="geometry" />
        </mxCell>
        <mxCell id="16" value="dependencies" style="rounded=1;fillColor=#23445D;gradientColor=none;strokeColor=none;fontColor=#FFFFFF;fontStyle=1;fontFamily=Tahoma;fontSize=14" parent="1" vertex="1">
          <mxGeometry x="240" y="455.5" width="130" height="60" as="geometry" />
        </mxCell>
        <mxCell id="59" value="" style="edgeStyle=elbowEdgeStyle;elbow=vertical;strokeWidth=2;rounded=0" parent="1" source="2" target="12" edge="1">
          <mxGeometry x="347" y="225.5" width="100" height="100" as="geometry">
            <mxPoint x="908.4999999999999" y="275.5" as="sourcePoint" />
            <mxPoint x="1513.4999999999998" y="345.5" as="targetPoint" />
          </mxGeometry>
        </mxCell>
        <mxCell id="61" value="" style="edgeStyle=elbowEdgeStyle;elbow=vertical;strokeWidth=2;rounded=0" parent="1" source="2" target="13" edge="1">
          <mxGeometry x="-23" y="135.5" width="100" height="100" as="geometry">
            <mxPoint x="-23" y="235.5" as="sourcePoint" />
            <mxPoint x="77" y="135.5" as="targetPoint" />
          </mxGeometry>
        </mxCell>
        <mxCell id="62" value="" style="edgeStyle=elbowEdgeStyle;elbow=vertical;strokeWidth=2;rounded=0" parent="1" source="13" target="14" edge="1">
          <mxGeometry x="-23" y="135.5" width="100" height="100" as="geometry">
            <mxPoint x="-23" y="235.5" as="sourcePoint" />
            <mxPoint x="77" y="135.5" as="targetPoint" />
          </mxGeometry>
        </mxCell>
        <mxCell id="rrMZwg-70rDYRUQXoC33-125" value="contract" style="rounded=1;fillColor=#258D81;gradientColor=none;strokeColor=none;fontColor=#FFFFFF;fontStyle=1;fontFamily=Tahoma;fontSize=14" vertex="1" parent="1">
          <mxGeometry x="93" y="618" width="130" height="60" as="geometry" />
        </mxCell>
        <mxCell id="rrMZwg-70rDYRUQXoC33-127" value="Rest service" style="rounded=1;fillColor=#258D81;gradientColor=none;strokeColor=none;fontColor=#FFFFFF;fontStyle=1;fontFamily=Tahoma;fontSize=14" vertex="1" parent="1">
          <mxGeometry x="93.5" y="550" width="127" height="60" as="geometry" />
        </mxCell>
        <mxCell id="rrMZwg-70rDYRUQXoC33-133" value="kafka" style="rounded=1;fillColor=#23445D;gradientColor=none;strokeColor=none;fontColor=#FFFFFF;fontStyle=1;fontFamily=Tahoma;fontSize=14" vertex="1" parent="1">
          <mxGeometry x="-40" y="710" width="130" height="130" as="geometry" />
        </mxCell>
        <mxCell id="rrMZwg-70rDYRUQXoC33-138" value="contract" style="rounded=1;fillColor=#258D81;gradientColor=none;strokeColor=none;fontColor=#FFFFFF;fontStyle=1;fontFamily=Tahoma;fontSize=14" vertex="1" parent="1">
          <mxGeometry x="94" y="780" width="130" height="60" as="geometry" />
        </mxCell>
        <mxCell id="rrMZwg-70rDYRUQXoC33-140" value="Kafka&#xa;consumer&#xa;service" style="rounded=1;fillColor=#258D81;gradientColor=none;strokeColor=none;fontColor=#FFFFFF;fontStyle=1;fontFamily=Tahoma;fontSize=14" vertex="1" parent="1">
          <mxGeometry x="93.5" y="711" width="130" height="60" as="geometry" />
        </mxCell>
        <mxCell id="rrMZwg-70rDYRUQXoC33-142" value="background&#xa;jobs" style="rounded=1;fillColor=#23445D;gradientColor=none;strokeColor=none;fontColor=#FFFFFF;fontStyle=1;fontFamily=Tahoma;fontSize=14" vertex="1" parent="1">
          <mxGeometry x="-40" y="861" width="130" height="60" as="geometry" />
        </mxCell>
        <mxCell id="rrMZwg-70rDYRUQXoC33-145" value="application" style="rounded=1;fillColor=#23445D;gradientColor=none;strokeColor=none;fontColor=#FFFFFF;fontStyle=1;fontFamily=Tahoma;fontSize=14" vertex="1" parent="1">
          <mxGeometry x="392" y="458.25" width="290" height="80" as="geometry" />
        </mxCell>
        <mxCell id="rrMZwg-70rDYRUQXoC33-170" style="edgeStyle=elbowEdgeStyle;shape=connector;rounded=0;orthogonalLoop=1;jettySize=auto;elbow=vertical;html=1;exitX=0;exitY=1;exitDx=0;exitDy=0;entryX=0;entryY=0.5;entryDx=0;entryDy=0;strokeColor=default;strokeWidth=2;align=center;verticalAlign=middle;fontFamily=Tahoma;fontSize=14;fontColor=#FFFFFF;fontStyle=1;labelBackgroundColor=default;endArrow=classic;" edge="1" parent="1" source="rrMZwg-70rDYRUQXoC33-147" target="rrMZwg-70rDYRUQXoC33-164">
          <mxGeometry relative="1" as="geometry">
            <Array as="points">
              <mxPoint x="845" y="642.75" />
            </Array>
          </mxGeometry>
        </mxCell>
        <mxCell id="rrMZwg-70rDYRUQXoC33-171" style="edgeStyle=elbowEdgeStyle;shape=connector;rounded=0;orthogonalLoop=1;jettySize=auto;elbow=vertical;html=1;exitX=0;exitY=1;exitDx=0;exitDy=0;entryX=0;entryY=0.5;entryDx=0;entryDy=0;strokeColor=default;strokeWidth=2;align=center;verticalAlign=middle;fontFamily=Tahoma;fontSize=14;fontColor=#FFFFFF;fontStyle=1;labelBackgroundColor=default;endArrow=classic;" edge="1" parent="1" source="rrMZwg-70rDYRUQXoC33-147" target="rrMZwg-70rDYRUQXoC33-166">
          <mxGeometry relative="1" as="geometry">
            <Array as="points">
              <mxPoint x="835" y="797.75" />
            </Array>
          </mxGeometry>
        </mxCell>
        <mxCell id="rrMZwg-70rDYRUQXoC33-172" style="edgeStyle=elbowEdgeStyle;shape=connector;rounded=0;orthogonalLoop=1;jettySize=auto;elbow=vertical;html=1;exitX=0;exitY=1;exitDx=0;exitDy=0;entryX=0;entryY=0.5;entryDx=0;entryDy=0;strokeColor=default;strokeWidth=2;align=center;verticalAlign=middle;fontFamily=Tahoma;fontSize=14;fontColor=#FFFFFF;fontStyle=1;labelBackgroundColor=default;endArrow=classic;" edge="1" parent="1" source="rrMZwg-70rDYRUQXoC33-147" target="rrMZwg-70rDYRUQXoC33-168">
          <mxGeometry relative="1" as="geometry">
            <Array as="points">
              <mxPoint x="845" y="947.75" />
            </Array>
          </mxGeometry>
        </mxCell>
        <mxCell id="rrMZwg-70rDYRUQXoC33-147" value="domain&#xa;-------------&#xa;Доменный слой, описывающий основные модели приложения и их взаимодействия со вспомогательными" style="rounded=1;fillColor=#23445D;gradientColor=none;strokeColor=none;fontColor=#FFFFFF;fontStyle=1;fontFamily=Tahoma;fontSize=14;whiteSpace=wrap;" vertex="1" parent="1">
          <mxGeometry x="712" y="458.25" width="373" height="91.75" as="geometry" />
        </mxCell>
        <mxCell id="rrMZwg-70rDYRUQXoC33-151" value="ports&#xa;-------------&#xa;Интерфейсы аггрегатных моделей" style="rounded=1;fillColor=#23445D;gradientColor=none;strokeColor=none;fontColor=#FFFFFF;fontStyle=1;fontFamily=Tahoma;fontSize=14;whiteSpace=wrap;glass=0;shadow=0;imageAspect=1;" vertex="1" parent="1">
          <mxGeometry x="1110" y="458.25" width="190" height="80" as="geometry" />
        </mxCell>
        <mxCell id="rrMZwg-70rDYRUQXoC33-153" value="use cases" style="rounded=1;fillColor=#23445D;gradientColor=none;strokeColor=none;fontColor=#FFFFFF;fontStyle=1;fontFamily=Tahoma;fontSize=14" vertex="1" parent="1">
          <mxGeometry x="392" y="542.75" width="290" height="80" as="geometry" />
        </mxCell>
        <mxCell id="rrMZwg-70rDYRUQXoC33-160" value="commands&#xa;-------------&#xa;POST, PUT, DELETE или выполнение логики доменной модели (с использованием методов доменной модели)" style="rounded=1;fillColor=#23445D;gradientColor=none;strokeColor=none;fontColor=#FFFFFF;fontStyle=1;fontFamily=Tahoma;fontSize=14;whiteSpace=wrap;" vertex="1" parent="1">
          <mxGeometry x="532" y="626.75" width="147" height="203.25" as="geometry" />
        </mxCell>
        <mxCell id="rrMZwg-70rDYRUQXoC33-162" value="queries&#xa;-----------&#xa;GET запросы без сложной логики" style="rounded=1;fillColor=#23445D;gradientColor=none;strokeColor=none;fontColor=#FFFFFF;fontStyle=1;fontFamily=Tahoma;fontSize=14;whiteSpace=wrap;" vertex="1" parent="1">
          <mxGeometry x="392" y="626.75" width="130" height="203.25" as="geometry" />
        </mxCell>
        <mxCell id="rrMZwg-70rDYRUQXoC33-164" value="model&#xa;--------------&#xa;Доменные модели разделены по доменным аггрегатам, включая entity и value object" style="rounded=1;fillColor=#23445D;gradientColor=none;strokeColor=none;fontColor=#FFFFFF;fontStyle=1;fontFamily=Tahoma;fontSize=14;whiteSpace=wrap;" vertex="1" parent="1">
          <mxGeometry x="731" y="572.75" width="190" height="140" as="geometry" />
        </mxCell>
        <mxCell id="rrMZwg-70rDYRUQXoC33-166" value="services&#xa;--------------&#xa;функции / действия / методы не относящиеся ни к одной доменной модели" style="rounded=1;fillColor=#23445D;gradientColor=none;strokeColor=none;fontColor=#FFFFFF;fontStyle=1;fontFamily=Tahoma;fontSize=14;whiteSpace=wrap;" vertex="1" parent="1">
          <mxGeometry x="731" y="742.75" width="190" height="110" as="geometry" />
        </mxCell>
        <mxCell id="rrMZwg-70rDYRUQXoC33-168" value="shared kernel&#xa;-----------------&#xa;Вспомогательные модели не относящиеся ни к одной доменной модели" style="rounded=1;fillColor=#23445D;gradientColor=none;strokeColor=none;fontColor=#FFFFFF;fontStyle=1;fontFamily=Tahoma;fontSize=14;whiteSpace=wrap;" vertex="1" parent="1">
          <mxGeometry x="731" y="882.75" width="190" height="130" as="geometry" />
        </mxCell>
        <mxCell id="rrMZwg-70rDYRUQXoC33-177" value="entity" style="rounded=1;fillColor=#258d81;gradientColor=none;strokeColor=none;fontColor=#FFFFFF;fontStyle=1;fontFamily=Tahoma;fontSize=14;whiteSpace=wrap;" vertex="1" parent="1">
          <mxGeometry x="957" y="622.75" width="120" height="40" as="geometry" />
        </mxCell>
        <mxCell id="rrMZwg-70rDYRUQXoC33-179" value="aggregate" style="rounded=1;fillColor=#258d81;gradientColor=none;strokeColor=none;fontColor=#FFFFFF;fontStyle=1;fontFamily=Tahoma;fontSize=14;whiteSpace=wrap;" vertex="1" parent="1">
          <mxGeometry x="957" y="572.75" width="120" height="40" as="geometry" />
        </mxCell>
        <mxCell id="rrMZwg-70rDYRUQXoC33-180" value="value object" style="rounded=1;fillColor=#258d81;gradientColor=none;strokeColor=none;fontColor=#FFFFFF;fontStyle=1;fontFamily=Tahoma;fontSize=14;whiteSpace=wrap;" vertex="1" parent="1">
          <mxGeometry x="958" y="672.75" width="120" height="40" as="geometry" />
        </mxCell>
        <mxCell id="rrMZwg-70rDYRUQXoC33-181" value="domain object" style="rounded=1;fillColor=#23445D;gradientColor=none;strokeColor=none;fontColor=#FFFFFF;fontStyle=1;fontFamily=Tahoma;fontSize=14;whiteSpace=wrap;textDirection=vertical-lr;" vertex="1" parent="1">
          <mxGeometry x="924" y="572.75" width="30" height="140" as="geometry" />
        </mxCell>
        <mxCell id="rrMZwg-70rDYRUQXoC33-200" style="edgeStyle=elbowEdgeStyle;shape=connector;rounded=0;orthogonalLoop=1;jettySize=auto;elbow=vertical;html=1;exitX=0;exitY=1;exitDx=0;exitDy=0;entryX=0;entryY=0.5;entryDx=0;entryDy=0;strokeColor=default;strokeWidth=2;align=center;verticalAlign=middle;fontFamily=Tahoma;fontSize=14;fontColor=#FFFFFF;fontStyle=1;labelBackgroundColor=default;endArrow=classic;" edge="1" parent="1" source="rrMZwg-70rDYRUQXoC33-183" target="rrMZwg-70rDYRUQXoC33-191">
          <mxGeometry relative="1" as="geometry">
            <Array as="points">
              <mxPoint x="1330" y="600" />
            </Array>
          </mxGeometry>
        </mxCell>
        <mxCell id="rrMZwg-70rDYRUQXoC33-201" style="edgeStyle=elbowEdgeStyle;shape=connector;rounded=0;orthogonalLoop=1;jettySize=auto;elbow=vertical;html=1;exitX=0;exitY=1;exitDx=0;exitDy=0;entryX=0;entryY=0.5;entryDx=0;entryDy=0;strokeColor=default;strokeWidth=2;align=center;verticalAlign=middle;fontFamily=Tahoma;fontSize=14;fontColor=#FFFFFF;fontStyle=1;labelBackgroundColor=default;endArrow=classic;" edge="1" parent="1" source="rrMZwg-70rDYRUQXoC33-183" target="rrMZwg-70rDYRUQXoC33-189">
          <mxGeometry relative="1" as="geometry">
            <Array as="points">
              <mxPoint x="1330" y="713" />
            </Array>
          </mxGeometry>
        </mxCell>
        <mxCell id="rrMZwg-70rDYRUQXoC33-202" style="edgeStyle=elbowEdgeStyle;shape=connector;rounded=0;orthogonalLoop=1;jettySize=auto;elbow=vertical;html=1;exitX=0;exitY=0.75;exitDx=0;exitDy=0;entryX=0;entryY=0.5;entryDx=0;entryDy=0;strokeColor=default;strokeWidth=2;align=center;verticalAlign=middle;fontFamily=Tahoma;fontSize=14;fontColor=#FFFFFF;fontStyle=1;labelBackgroundColor=default;endArrow=classic;" edge="1" parent="1" source="rrMZwg-70rDYRUQXoC33-183" target="rrMZwg-70rDYRUQXoC33-194">
          <mxGeometry relative="1" as="geometry">
            <Array as="points">
              <mxPoint x="1330" y="822" />
            </Array>
          </mxGeometry>
        </mxCell>
        <mxCell id="rrMZwg-70rDYRUQXoC33-183" value="adapters" style="rounded=1;fillColor=#23445D;gradientColor=none;strokeColor=none;fontColor=#FFFFFF;fontStyle=1;fontFamily=Tahoma;fontSize=14" vertex="1" parent="1">
          <mxGeometry x="1320" y="458.25" width="420" height="80" as="geometry" />
        </mxCell>
        <mxCell id="rrMZwg-70rDYRUQXoC33-189" value="api repository" style="rounded=1;fillColor=#23445D;gradientColor=none;strokeColor=none;fontColor=#FFFFFF;fontStyle=1;fontFamily=Tahoma;fontSize=14" vertex="1" parent="1">
          <mxGeometry x="1341" y="672.75" width="234" height="80" as="geometry" />
        </mxCell>
        <mxCell id="rrMZwg-70rDYRUQXoC33-194" value="postrges" style="rounded=1;fillColor=#23445D;gradientColor=none;strokeColor=none;fontColor=#FFFFFF;fontStyle=1;fontFamily=Tahoma;fontSize=14;whiteSpace=wrap;" vertex="1" parent="1">
          <mxGeometry x="1340" y="782" width="400" height="80" as="geometry" />
        </mxCell>
        <mxCell id="rrMZwg-70rDYRUQXoC33-196" value="entity configurations&#xa;------------------&#xa;Описание модели для преобразования в/из доменной модели" style="rounded=1;fillColor=#23445D;gradientColor=none;strokeColor=none;fontColor=#FFFFFF;fontStyle=1;fontFamily=Tahoma;fontSize=14;whiteSpace=wrap;" vertex="1" parent="1">
          <mxGeometry x="1341" y="864" width="192" height="130" as="geometry" />
        </mxCell>
        <mxCell id="rrMZwg-70rDYRUQXoC33-197" value="repositories&#xa;--------------&#xa;сервисы, использующие глобальный интерфейс для доступа ко всем сущностям конкретной группы агрегатов" style="rounded=1;fillColor=#23445D;gradientColor=none;strokeColor=none;fontColor=#FFFFFF;fontStyle=1;fontFamily=Tahoma;fontSize=14;whiteSpace=wrap;" vertex="1" parent="1">
          <mxGeometry x="1550" y="864" width="189" height="130" as="geometry" />
        </mxCell>
        <mxCell id="rrMZwg-70rDYRUQXoC33-191" value="kafka" style="rounded=1;fillColor=#23445D;gradientColor=none;strokeColor=none;fontColor=#FFFFFF;fontStyle=1;fontFamily=Tahoma;fontSize=14" vertex="1" parent="1">
          <mxGeometry x="1340" y="560" width="235" height="80" as="geometry" />
        </mxCell>
      </root>
    </mxGraphModel>
  </diagram>
</mxfile>
